<?xml version="1.0" encoding="UTF-8"?>
<svg version="1.1" xmlns="http://www.w3.org/2000/svg" width="500" height="500">
<path d="M0 0 C0 0.66 0 1.32 0 2 C0.72832031 2.2578125 1.45664062 2.515625 2.20703125 2.78125 C18.90371446 10.0670754 32.36049383 29.55812402 41 45 C41.48984375 45.80179687 41.9796875 46.60359375 42.484375 47.4296875 C54.70632535 68.1566033 57.49375068 92.39401512 57 116 C56.97486328 117.57007813 56.97486328 117.57007813 56.94921875 119.171875 C55.76274614 145.3420708 44.70656504 170.41166475 29 191 C26.88227708 193.98950639 24.7692134 196.98209645 22.6640625 199.98046875 C21.84035156 200.98013672 21.84035156 200.98013672 21 202 C20.34 202 19.68 202 19 202 C18.7421875 202.56203125 18.484375 203.1240625 18.21875 203.703125 C16.85830223 206.26704579 15.27211038 208.45226365 13.5 210.75 C12.8915625 211.54921875 12.283125 212.3484375 11.65625 213.171875 C11.1096875 213.77515625 10.563125 214.3784375 10 215 C9.34 215 8.68 215 8 215 C7.7525 215.556875 7.505 216.11375 7.25 216.6875 C5.77075182 219.42410913 4.06532561 221.67650869 2 224 C1.34 224 0.68 224 0 224 C-0.268125 224.5775 -0.53625 225.155 -0.8125 225.75 C-2.02929189 228.05550043 -3.30333879 230.02056192 -5 232 C-5.66 232 -6.32 232 -7 232 C-7 232.66 -7 233.32 -7 234 C-7.66 234 -8.32 234 -9 234 C-9.2475 234.556875 -9.495 235.11375 -9.75 235.6875 C-11.22924818 238.42410913 -12.93467439 240.67650869 -15 243 C-15.66 243 -16.32 243 -17 243 C-17.23332031 243.56203125 -17.46664062 244.1240625 -17.70703125 244.703125 C-19.31937076 247.56734142 -21.3193562 249.47252021 -23.6875 251.75 C-28.64845926 256.61059303 -33.55956787 261.53105658 -37.56640625 267.2265625 C-38.03949219 267.81179688 -38.51257813 268.39703125 -39 269 C-39.66 269 -40.32 269 -41 269 C-41 269.66 -41 270.32 -41 271 C-41.66 271 -42.32 271 -43 271 C-43.26804443 271.59474121 -43.53608887 272.18948242 -43.81225586 272.80224609 C-45.00979699 275.01812796 -46.20318983 276.42079528 -48.00390625 278.1640625 C-48.57947266 278.72867187 -49.15503906 279.29328125 -49.74804688 279.875 C-50.34681641 280.4525 -50.94558594 281.03 -51.5625 281.625 C-52.75349384 282.78160151 -53.94240005 283.94035778 -55.12890625 285.1015625 C-55.65556885 285.61025879 -56.18223145 286.11895508 -56.72485352 286.64306641 C-58.1164217 287.99400105 -58.1164217 287.99400105 -59 290 C-59.66 290 -60.32 290 -61 290 C-61 290.66 -61 291.32 -61 292 C-61.66 292 -62.32 292 -63 292 C-63 292.66 -63 293.32 -63 294 C-65.5 295 -65.5 295 -69 295 C-72.08169021 292.7151913 -74.49082552 289.88627585 -77 287 C-77.65871094 286.28199219 -78.31742187 285.56398438 -78.99609375 284.82421875 C-81.84501954 281.67914683 -84.22933444 278.88514968 -86 275 C-86.66 275 -87.32 275 -88 275 C-89.56432787 273.30725716 -91.05328572 271.54430148 -92.5 269.75 C-93.2940625 268.77546875 -94.088125 267.8009375 -94.90625 266.796875 C-96.58748034 264.55105238 -97.88135899 262.5534197 -99 260 C-99.66 260 -100.32 260 -101 260 C-101 259.34 -101 258.68 -101 258 C-101.66 258 -102.32 258 -103 258 C-107 253.52941176 -107 253.52941176 -107 251 C-107.66 251 -108.32 251 -109 251 C-110.625 249 -110.625 249 -112 247 C-115.69327059 248.36837004 -118.89747188 250.06558987 -122.25 252.125 C-146.81200787 266.67913386 -146.81200787 266.67913386 -153.3125 265.625 C-153.869375 265.41875 -154.42625 265.2125 -155 265 C-154.45757083 259.58762986 -153.46471485 254.92208037 -151.6875 249.75 C-149.59469592 243.38729319 -148.00992004 237.0029123 -146.6875 230.4375 C-146.51629639 229.60508789 -146.34509277 228.77267578 -146.16870117 227.91503906 C-145.26225058 223.24467378 -144.51149707 218.77044223 -145 214 C-146.3330547 212.21295136 -146.3330547 212.21295136 -148.375 211.125 C-156.46274342 205.74271412 -164.27175768 198.90952665 -170 191 C-170 190.34 -170 189.68 -170 189 C-170.66 189 -171.32 189 -172 189 C-173.14160156 187.62988281 -173.14160156 187.62988281 -174.390625 185.703125 C-174.84993408 184.99808838 -175.30924316 184.29305176 -175.7824707 183.56665039 C-176.26675537 182.80215576 -176.75104004 182.03766113 -177.25 181.25 C-177.99479614 180.07908813 -177.99479614 180.07908813 -178.75463867 178.88452148 C-184.32991552 170.01463841 -188.76551827 161.15228695 -192.1875 151.25 C-192.42573486 150.57203369 -192.66396973 149.89406738 -192.90942383 149.19555664 C-197.05906763 136.57196467 -198.50474756 123.93771645 -198.39111328 110.71826172 C-198.37500255 108.50035166 -198.39109158 106.28426258 -198.41015625 104.06640625 C-198.43095283 90.79534569 -196.53130426 78.11099638 -192.0625 65.5625 C-191.67553955 64.43739014 -191.67553955 64.43739014 -191.28076172 63.28955078 C-189.45424676 58.06005774 -187.40441038 52.9937754 -185 48 C-184.34 48 -183.68 48 -183 48 C-182.93683594 47.33613281 -182.87367188 46.67226562 -182.80859375 45.98828125 C-181.68230535 41.82591108 -179.47544344 38.72400195 -177.0625 35.1875 C-176.60681641 34.49462891 -176.15113281 33.80175781 -175.68164062 33.08789062 C-174.51293645 31.35109013 -173.26241962 29.66992279 -172 28 C-171.34 28 -170.68 28 -170 28 C-169.731875 27.41605469 -169.46375 26.83210938 -169.1875 26.23046875 C-159.85461922 8.70061702 -137.75128425 -3.67407317 -120 -11 C-119.06929688 -11.38671875 -118.13859375 -11.7734375 -117.1796875 -12.171875 C-111.8502047 -14.2400325 -106.40524452 -15.76686904 -100.875 -17.1875 C-100.22990479 -17.35467529 -99.58480957 -17.52185059 -98.92016602 -17.6940918 C-66.25645474 -25.72249038 -27.88587348 -18.85616207 0 0 Z " fill="#097249" transform="translate(321,108)"/>
<path d="M0 0 C3.2835278 2.67999717 6.43377527 5.49297141 9.5546875 8.359375 C10.37839844 9.10058594 11.20210937 9.84179688 12.05078125 10.60546875 C29.30921269 26.90676014 40.70207728 51.36094351 41.71118164 75.0300293 C41.74991923 78.74615781 41.73045705 82.4559344 41.6796875 86.171875 C41.67066406 87.44869141 41.66164063 88.72550781 41.65234375 90.04101562 C41.62907539 93.14734216 41.59638905 96.25325072 41.5546875 99.359375 C38.36419647 98.19652053 35.90051129 97.07688121 33.390625 94.78515625 C32.83117187 94.28588623 32.27171875 93.78661621 31.6953125 93.2722168 C31.11265625 92.744104 30.53 92.21599121 29.9296875 91.671875 C25.65659189 87.88389744 21.4704355 84.4963238 16.5546875 81.546875 C11.83845586 78.70459655 8.79001333 75.81887818 5.5546875 71.359375 C5.5546875 70.699375 5.5546875 70.039375 5.5546875 69.359375 C4.5646875 69.029375 3.5746875 68.699375 2.5546875 68.359375 C0.94921875 66.73046875 0.94921875 66.73046875 -0.6328125 64.796875 C-1.16261719 64.15621094 -1.69242188 63.51554687 -2.23828125 62.85546875 C-2.63660156 62.36175781 -3.03492188 61.86804688 -3.4453125 61.359375 C-6.54951965 61.69597578 -8.09538702 62.02768211 -10.39453125 64.20703125 C-10.96816406 64.93792969 -11.54179687 65.66882813 -12.1328125 66.421875 C-13.1982158 67.76603127 -14.29487935 69.08723356 -15.4453125 70.359375 C-16.1053125 70.359375 -16.7653125 70.359375 -17.4453125 70.359375 C-17.7753125 71.349375 -18.1053125 72.339375 -18.4453125 73.359375 C-22.48963662 71.78710848 -24.95097612 68.90759586 -27.7578125 65.734375 C-28.24709229 65.19095459 -28.73637207 64.64753418 -29.24047852 64.08764648 C-32.36659967 60.60631949 -35.44348985 57.0826319 -38.5078125 53.546875 C-41.60006147 50.05562616 -44.77875018 46.64435134 -47.95703125 43.23144531 C-51.63425276 39.2740325 -55.17970293 35.22551272 -58.62890625 31.06640625 C-60.74508084 29.07765722 -62.710408 28.27413723 -65.4453125 27.359375 C-65.67734375 27.93042969 -65.909375 28.50148437 -66.1484375 29.08984375 C-67.76377569 31.91668558 -69.72083783 33.56107312 -72.1953125 35.671875 C-75.76101712 38.79314366 -78.8907677 41.91985588 -81.87402344 45.58691406 C-83.4760442 47.39404127 -85.15317177 48.89496927 -87 50.44921875 C-92.06107978 54.82199168 -96.741587 59.5461845 -101.4453125 64.296875 C-102.31542969 65.17150391 -103.18554688 66.04613281 -104.08203125 66.94726562 C-106.20544799 69.08234949 -108.32647628 71.21974705 -110.4453125 73.359375 C-115.32177879 71.11003493 -118.28882574 67.47540479 -121.91015625 63.57421875 C-124.72353071 61.11630917 -125.73792034 60.37230429 -129.4453125 60.359375 C-131.79158097 62.16695938 -133.64796715 63.86239005 -135.6640625 65.9921875 C-136.24442261 66.58103729 -136.82478271 67.16988708 -137.42272949 67.77658081 C-139.27813196 69.66557214 -141.11167338 71.57427414 -142.9453125 73.484375 C-144.17959338 74.7487603 -145.41525624 76.0117981 -146.65234375 77.2734375 C-148.93644341 79.60648874 -151.21207087 81.94716164 -153.47851562 84.29736328 C-154.22983765 85.07155609 -154.22983765 85.07155609 -154.99633789 85.86138916 C-156.38753903 87.29964736 -157.76727691 88.74896702 -159.14648438 90.19873047 C-161.4453125 92.359375 -161.4453125 92.359375 -164.4453125 93.359375 C-165.65413346 95.35953966 -165.65413346 95.35953966 -166.4453125 97.359375 C-167.1053125 97.359375 -167.7653125 97.359375 -168.4453125 97.359375 C-168.92968866 66.88466234 -164.13897174 41.3485089 -144.4453125 17.359375 C-143.84074219 16.60269531 -143.23617187 15.84601563 -142.61328125 15.06640625 C-141.28408453 13.44614456 -139.87401352 11.89261512 -138.4453125 10.359375 C-137.7853125 10.359375 -137.1253125 10.359375 -136.4453125 10.359375 C-136.4453125 9.699375 -136.4453125 9.039375 -136.4453125 8.359375 C-135.7853125 8.359375 -135.1253125 8.359375 -134.4453125 8.359375 C-134.4453125 7.699375 -134.4453125 7.039375 -134.4453125 6.359375 C-133.7853125 6.359375 -133.1253125 6.359375 -132.4453125 6.359375 C-132.4453125 5.699375 -132.4453125 5.039375 -132.4453125 4.359375 C-130.53884641 2.84390116 -128.64809408 1.46685788 -126.6328125 0.109375 C-126.04040771 -0.29321533 -125.44800293 -0.69580566 -124.83764648 -1.1105957 C-119.55140052 -4.65435673 -114.15498461 -7.82113079 -108.4453125 -10.640625 C-107.43597656 -11.15496094 -106.42664063 -11.66929688 -105.38671875 -12.19921875 C-72.28076137 -27.83583702 -28.79526963 -22.63768787 0 0 Z " fill="#F8F8EC" transform="translate(313.4453125,131.640625)"/>
<path d="M0 0 C3.88585253 0.51195091 5.75638541 1.27064913 8.3828125 4.17578125 C8.98697998 4.83271973 9.59114746 5.4896582 10.21362305 6.16650391 C10.84437744 6.87468262 11.47513184 7.58286133 12.125 8.3125 C12.78733643 9.03872559 13.44967285 9.76495117 14.13208008 10.51318359 C15.47256051 11.98439124 16.80863433 13.45962677 18.14013672 14.93896484 C19.74702056 16.71965707 21.36820942 18.48411236 23.00390625 20.23828125 C26.82684385 24.35058239 30.58694982 28.48677195 34.203125 32.78125 C34.74235596 33.42046387 35.28158691 34.05967773 35.8371582 34.71826172 C36.87870019 35.9592141 37.9140511 37.20539795 38.94213867 38.45751953 C41.37548072 41.36356103 43.38251626 43.68299646 47 45 C49.72168266 42.3560797 52.20212722 39.77006137 54.5 36.75 C57.23743823 33.73881795 58.15003836 33.53899463 62 33 C62.45890625 33.53109375 62.9178125 34.0621875 63.390625 34.609375 C67.15870794 38.95877904 67.15870794 38.95877904 71.125 43.125 C73 45 73 45 75.0625 47.8125 C78.0561954 51.47045001 81.87705628 53.50642016 85.87890625 55.93359375 C90.63752637 59.08416952 94.85576701 62.80342232 99.15234375 66.546875 C101.78937234 68.95057803 101.78937234 68.95057803 104.1809082 70.33935547 C106 72 106 72 106.28613281 74.32568359 C105.45530942 81.05632765 103.98158392 87.2246274 101.75 93.625 C101.46253906 94.5015625 101.17507813 95.378125 100.87890625 96.28125 C98.85192041 102.24713845 96.23867358 107.59947071 93 113 C88.44401622 111.88878444 85.65552472 110.04122576 82.19140625 106.93359375 C79.31444843 104.39510156 76.36891935 101.96133116 73.375 99.5625 C72.82448975 99.10101563 72.27397949 98.63953125 71.70678711 98.1640625 C69.28865287 96.24674684 67.61968227 95.02505714 64.48828125 94.8984375 C61.10467781 96.39635927 58.53632385 98.61476212 55.8125 101.0625 C50.24181446 106 50.24181446 106 48 106 C47.505 107.485 47.505 107.485 47 109 C42.54285714 113 42.54285714 113 40 113 C40 113.66 40 114.32 40 115 C38.390625 116.76171875 38.390625 116.76171875 36.25 118.6875 C35.55390625 119.33074219 34.8578125 119.97398437 34.140625 120.63671875 C32 122 32 122 29.88671875 121.84375 C23.92415449 119.17726163 18.81979324 111.63958648 16 106 C19.63 106 23.26 106 27 106 C25.86698867 102.600966 24.47847888 101.7540425 21.76171875 99.58984375 C17.44567121 95.69487402 13.02219542 90.85439192 12 85 C15.465 84.505 15.465 84.505 19 84 C18.5875 83.5359375 18.175 83.071875 17.75 82.59375 C13.64341044 77.68050893 10.54084935 72.57642448 7.6875 66.875 C7.35041016 66.20662109 7.01332031 65.53824219 6.66601562 64.84960938 C4.61238687 60.63863324 3.16131127 56.53913543 2 52 C1.72027344 52.94359375 1.44054687 53.8871875 1.15234375 54.859375 C-2.19930611 65.74475886 -6.6872892 75.13513833 -14 84 C-11.69 84.33 -9.38 84.66 -7 85 C-8.42777089 89.20696128 -10.4882949 92.14972107 -13.3125 95.5625 C-14.07175781 96.49191406 -14.83101562 97.42132813 -15.61328125 98.37890625 C-17.91118989 100.90246876 -20.2770751 102.95178215 -23 105 C-21.94021067 106.28612676 -21.94021067 106.28612676 -19.49609375 106.09765625 C-18.48675781 106.08605469 -17.47742188 106.07445312 -16.4375 106.0625 C-14.91962891 106.04896484 -14.91962891 106.04896484 -13.37109375 106.03515625 C-12.58863281 106.02355469 -11.80617187 106.01195312 -11 106 C-16.45717183 115.18402089 -23.59349156 122.45161464 -32 129 C-28.99686252 130.50156874 -26.20932478 130.09281204 -22.875 130.0625 C-20.95300781 130.04896484 -20.95300781 130.04896484 -18.9921875 130.03515625 C-18.00476563 130.02355469 -17.01734375 130.01195312 -16 130 C-17.55636242 133.62590381 -19.7792923 136.16858915 -22.4375 139.0625 C-23.21996094 139.91972656 -24.00242188 140.77695312 -24.80859375 141.66015625 C-25.89333984 142.81837891 -25.89333984 142.81837891 -27 144 C-27.54785156 144.59683594 -28.09570312 145.19367188 -28.66015625 145.80859375 C-30 147 -30 147 -32 147 C-32 147.66 -32 148.32 -32 149 C-33.828125 150.54296875 -33.828125 150.54296875 -36.25 152.1875 C-37.03890625 152.73792969 -37.8278125 153.28835938 -38.640625 153.85546875 C-41 155 -41 155 -43.10546875 154.7734375 C-53.15703605 150.66991106 -61.96412503 143.14299997 -70 136 C-69.45418801 132.20450741 -67.94590705 130.69020705 -65.0625 128.25 C-64.35222656 127.63640625 -63.64195312 127.0228125 -62.91015625 126.390625 C-61 125 -61 125 -59 125 C-59 124.34 -59 123.68 -59 123 C-57.42578125 121.4140625 -57.42578125 121.4140625 -55.3125 119.625 C-54.22195312 118.69494141 -54.22195312 118.69494141 -53.109375 117.74609375 C-51.44641665 116.36953378 -49.75873826 115.02283651 -48.0625 113.6875 C-45.91019125 112.16126242 -45.91019125 112.16126242 -45 110 C-44.34 110 -43.68 110 -43 110 C-43 109.34 -43 108.68 -43 108 C-42.34 108 -41.68 108 -41 108 C-40.5978125 106.6696875 -40.5978125 106.6696875 -40.1875 105.3125 C-39.07525635 102.20992561 -37.7184577 99.79249376 -36 97 C-35.73832031 96.32066406 -35.47664063 95.64132813 -35.20703125 94.94140625 C-33.45130026 90.66287733 -31.3197418 86.60118967 -29.1875 82.5 C-28.76146484 81.65824219 -28.33542969 80.81648438 -27.89648438 79.94921875 C-25.4307576 75.21174069 -23.04108708 71.5920774 -19 68 C-15.83833749 65.16705908 -14.33230179 62.96730742 -13.03515625 58.9296875 C-12.70966797 57.95 -12.38417969 56.9703125 -12.04882812 55.9609375 C-11.72333984 54.94257813 -11.39785156 53.92421875 -11.0625 52.875 C-8.59031062 45.22558036 -5.80955678 38.09095935 -2 31 C-1.34 31 -0.68 31 0 31 C0 30.01 0 29.02 0 28 C0.66 28 1.32 28 2 28 C2 19.09 2 10.18 2 1 C1.01 0.505 1.01 0.505 0 0 Z " fill="#63AB4E" transform="translate(248,159)"/>
<path d="M0 0 C3.2853133 1.24048899 5.80399608 3.3695708 8.515625 5.54296875 C9.67558318 6.45337742 10.83573903 7.36353429 11.99609375 8.2734375 C12.55603027 8.71606934 13.1159668 9.15870117 13.69287109 9.61474609 C15.72239178 11.21580542 17.76899403 12.7927008 19.828125 14.35546875 C20.40691406 14.79890625 20.98570312 15.24234375 21.58203125 15.69921875 C23.40299045 16.9498079 25.27045518 17.91245632 27.265625 18.85546875 C27.925625 17.53546875 28.585625 16.21546875 29.265625 14.85546875 C29.760625 16.34046875 29.760625 16.34046875 30.265625 17.85546875 C29.55986328 18.52642578 29.55986328 18.52642578 28.83984375 19.2109375 C28.21722656 19.81550781 27.59460938 20.42007812 26.953125 21.04296875 C26.33824219 21.63464844 25.72335937 22.22632813 25.08984375 22.8359375 C23.20082934 24.79054534 23.20082934 24.79054534 21.9296875 27.12890625 C19.6501081 30.86399175 16.83522324 34.01176043 13.953125 37.29296875 C13.39689453 37.93556641 12.84066406 38.57816406 12.26757812 39.24023438 C8.74913849 43.27476643 5.22208444 47.24499025 1.265625 50.85546875 C0.275625 50.85546875 -0.714375 50.85546875 -1.734375 50.85546875 C-2.064375 51.84546875 -2.394375 52.83546875 -2.734375 53.85546875 C-7.10089822 57.18234358 -12.4656343 61.14928814 -18.16796875 60.63671875 C-21.12282001 59.73722065 -22.85480438 58.49941149 -25.234375 56.54296875 C-26.00652344 55.91390625 -26.77867187 55.28484375 -27.57421875 54.63671875 C-28.64349609 53.755 -28.64349609 53.755 -29.734375 52.85546875 C-30.745 52.09234375 -31.755625 51.32921875 -32.796875 50.54296875 C-33.43625 49.98609375 -34.075625 49.42921875 -34.734375 48.85546875 C-34.734375 48.19546875 -34.734375 47.53546875 -34.734375 46.85546875 C-35.32734375 46.59765625 -35.9203125 46.33984375 -36.53125 46.07421875 C-38.91098465 44.7577698 -40.24416292 43.42966093 -41.984375 41.35546875 C-42.76554687 40.4428125 -42.76554687 40.4428125 -43.5625 39.51171875 C-44.734375 37.85546875 -44.734375 37.85546875 -44.734375 35.85546875 C-39.124375 35.85546875 -33.514375 35.85546875 -27.734375 35.85546875 C-27.734375 35.19546875 -27.734375 34.53546875 -27.734375 33.85546875 C-28.353125 33.54609375 -28.971875 33.23671875 -29.609375 32.91796875 C-30.984375 32.23046875 -32.359375 31.54296875 -33.734375 30.85546875 C-33.734375 30.19546875 -33.734375 29.53546875 -33.734375 28.85546875 C-34.724375 28.52546875 -35.714375 28.19546875 -36.734375 27.85546875 C-35.991875 27.44296875 -35.249375 27.03046875 -34.484375 26.60546875 C-31.68353192 24.96280413 -31.68353192 24.96280413 -29.546875 22.66796875 C-28.94875 22.06984375 -28.350625 21.47171875 -27.734375 20.85546875 C-27.074375 20.85546875 -26.414375 20.85546875 -25.734375 20.85546875 C-25.734375 20.19546875 -25.734375 19.53546875 -25.734375 18.85546875 C-24.34375 17.70703125 -24.34375 17.70703125 -22.484375 16.48046875 C-19.54134666 14.5310269 -17.22205295 12.35691613 -14.734375 9.85546875 C-12.87694163 8.27212655 -11.00098466 6.71031895 -9.109375 5.16796875 C-7.66691406 3.98654297 -7.66691406 3.98654297 -6.1953125 2.78125 C-2.38698728 -0.19891561 -2.38698728 -0.19891561 0 0 Z " fill="#1A8346" transform="translate(313.734375,253.14453125)"/>
<path d="M0 0 C2.50054025 0.93296672 3.42084507 1.99873545 5.0625 4.08203125 C6.70033528 6.10161761 8.28332615 7.9903574 10.125 9.83203125 C12.0625 11.76953125 12.0625 11.76953125 14.125 14.58203125 C17.1186954 18.23998126 20.93955628 20.27595141 24.94140625 22.703125 C29.70002637 25.85370077 33.91826701 29.57295357 38.21484375 33.31640625 C40.8928383 35.73747485 40.8928383 35.73747485 43.4375 37.30078125 C45.0625 38.76953125 45.0625 38.76953125 45.41015625 40.94140625 C44.43658379 49.74356823 42.0436249 58.80728145 38.0625 66.76953125 C36.375 66.64453125 36.375 66.64453125 34.0625 65.76953125 C32.84288555 64.35214148 31.62992127 62.92711486 30.484375 61.44921875 C28.95584586 59.64353872 27.32376967 58.21125153 25.5 56.70703125 C22.59462853 54.30150864 20.42206602 51.71898877 18.0625 48.76953125 C16.39456864 47.25834525 14.6844886 45.81811591 12.94140625 44.39453125 C8.62554784 40.66189695 4.75346892 36.44724664 0.875 32.26953125 C0.01519531 31.35171875 -0.84460938 30.43390625 -1.73046875 29.48828125 C-3.81982632 26.91448856 -4.80742018 24.84075297 -5.9375 21.76953125 C-7.2528341 21.06801973 -8.58867592 20.404272 -9.9375 19.76953125 C-11.31982443 18.14326721 -12.65687515 16.47703105 -13.9375 14.76953125 C-14.5975 14.10953125 -15.2575 13.44953125 -15.9375 12.76953125 C-15.40640625 12.32222656 -14.8753125 11.87492188 -14.328125 11.4140625 C-10.44123088 8.08750531 -7.05712191 4.84903682 -3.9375 0.76953125 C-1.9375 -0.23046875 -1.9375 -0.23046875 0 0 Z " fill="#8FC77C" transform="translate(308.9375,192.23046875)"/>
<path d="M0 0 C2.41397158 0.94068453 3.65948936 1.73002335 5.43310547 3.58374023 C5.949375 4.11290039 6.46564453 4.64206055 6.99755859 5.18725586 C7.51898438 5.74219727 8.04041016 6.29713867 8.57763672 6.86889648 C9.37717773 7.69550781 9.37717773 7.69550781 10.19287109 8.53881836 C11.59988969 9.99539232 12.99568171 11.46279025 14.39013672 12.93139648 C15.05013672 13.59139648 15.71013672 14.25139648 16.39013672 14.93139648 C14.76673867 16.64023654 13.09694619 18.30586365 11.39013672 19.93139648 C10.73013672 19.93139648 10.07013672 19.93139648 9.39013672 19.93139648 C9.39013672 20.59139648 9.39013672 21.25139648 9.39013672 21.93139648 C7.88623047 23.44702148 7.88623047 23.44702148 5.82763672 25.18139648 C5.08642578 25.80788086 4.34521484 26.43436523 3.58154297 27.07983398 C2.85837891 27.69084961 2.13521484 28.30186523 1.39013672 28.93139648 C0.86291016 29.41866211 0.33568359 29.90592773 -0.20751953 30.40795898 C-4.43035981 34.27439586 -9.14146399 37.2274484 -13.98095703 40.24755859 C-19.26513908 43.59565328 -24.14612702 47.34955606 -28.9909668 51.30126953 C-31.74577837 53.5360298 -34.33390676 55.53312236 -37.60986328 56.93139648 C-38.11629881 54.70368306 -38.61475948 52.47415572 -39.10986328 50.24389648 C-39.52751953 48.3818457 -39.52751953 48.3818457 -39.95361328 46.48217773 C-40.50931079 43.47545729 -40.93287059 40.96228177 -40.60986328 37.93139648 C-38.35986328 35.43139648 -38.35986328 35.43139648 -35.60986328 32.93139648 C-35.01173828 32.14764648 -34.41361328 31.36389648 -33.79736328 30.55639648 C-31.97203885 28.36600717 -30.30488838 26.76752927 -28.14111328 24.95483398 C-24.71955709 21.99596419 -21.54907676 18.87632004 -18.41064453 15.61889648 C-17.51152344 14.68948242 -16.61240234 13.76006836 -15.68603516 12.80249023 C-14.29216235 11.35443862 -12.89850094 9.90608454 -11.51977539 8.44360352 C-10.16410207 7.00946755 -8.78764011 5.5950723 -7.41064453 4.18139648 C-6.60796143 3.34092773 -5.80527832 2.50045898 -4.97827148 1.63452148 C-2.60986328 -0.06860352 -2.60986328 -0.06860352 0 0 Z " fill="#7CC072" transform="translate(186.60986328125,191.068603515625)"/>
<path d="M0 0 C5.34038591 0.32575367 7.72590912 3.25340884 11.1875 6.9375 C11.98704102 7.76411133 11.98704102 7.76411133 12.80273438 8.60742188 C14.20975297 10.06399584 15.60554499 11.53139377 17 13 C17.66 13.66 18.32 14.32 19 15 C17.37660195 16.70884005 15.70680947 18.37446717 14 20 C13.34 20 12.68 20 12 20 C12 20.66 12 21.32 12 22 C8.20741237 25.90551828 3.88204708 29.55897646 -1 32 C-1.66 32 -2.32 32 -3 32 C-2.24616135 24.46161345 -2.24616135 24.46161345 -1.01367188 22.15039062 C0.0857182 19.81815849 0.39082451 18.01128376 0.6328125 15.453125 C0.71660156 14.60878906 0.80039063 13.76445312 0.88671875 12.89453125 C0.96535156 12.02183594 1.04398438 11.14914063 1.125 10.25 C1.21136719 9.36183594 1.29773438 8.47367188 1.38671875 7.55859375 C1.59823066 5.37297064 1.80240227 3.18691762 2 1 C1.34 0.67 0.68 0.34 0 0 Z " fill="#96CB82" transform="translate(184,191)"/>
<path d="M0 0 C1 3 1 3 0 5.8125 C-2.44917033 9.71586522 -5.38358064 12.20594449 -9 15 C-6.64046906 17.35953094 -5.22104383 17.49141413 -2 18 C-2 18.66 -2 19.32 -2 20 C-1.34 20 -0.68 20 0 20 C-1.37193613 24.48997278 -3.35021868 26.17141948 -7 29 C-7.309375 29.66 -7.61875 30.32 -7.9375 31 C-9.53117207 33.99985331 -12.19283892 35.16675195 -15 37 C-16.83300909 39.10575643 -16.83300909 39.10575643 -18 41 C-16.35 41.66 -14.7 42.32 -13 43 C-13 43.33 -13 43.66 -13 44 C-14.4370809 44.05422947 -15.87475462 44.09289723 -17.3125 44.125 C-18.11300781 44.14820313 -18.91351563 44.17140625 -19.73828125 44.1953125 C-22 44 -22 44 -25 42 C-24.57702637 41.61779297 -24.15405273 41.23558594 -23.71826172 40.84179688 C-21.76391254 39.06831703 -19.81949602 37.28427538 -17.875 35.5 C-17.20984375 34.89929688 -16.5446875 34.29859375 -15.859375 33.6796875 C-11.30842767 29.48567722 -7.53744194 25.07683793 -4 20 C-5.625 20.04166667 -7.25 20.08333333 -8.875 20.125 C-11.6171875 20.1953125 -11.6171875 20.1953125 -14 20 C-14.66 19.34 -15.32 18.68 -16 18 C-15.12085938 17.31550781 -14.24171875 16.63101562 -13.3359375 15.92578125 C-9.88405483 13.04921236 -7.28297647 9.78901797 -4.625 6.1875 C-4.17511719 5.59001953 -3.72523438 4.99253906 -3.26171875 4.37695312 C-2.1681343 2.92271849 -1.08314264 1.4620285 0 0 Z " fill="#0F5D37" transform="translate(240,246)"/>
<path d="M0 0 C0.495 0.99 0.495 0.99 1 2 C-0.695241 6.2827141 -1.85640508 8.12869907 -6 10 C-6.433125 10.99 -6.433125 10.99 -6.875 12 C-8 14 -8 14 -11 14.875 C-11.99 15.24625 -12.98 15.6175 -14 16 C-14.69258229 17.99117408 -15.35747635 19.9921136 -16 22 C-19 24.25 -19 24.25 -22 26 C-22.66 26.66 -23.32 27.32 -24 28 C-24.99 28.33 -25.98 28.66 -27 29 C-27.66 29.66 -28.32 30.32 -29 31 C-29.886875 31.4125 -30.77375 31.825 -31.6875 32.25 C-35.06757911 34.03570217 -37.50308119 36.04863721 -40.32421875 38.58203125 C-42 40 -42 40 -44.875 41.6875 C-47.31677193 42.88204511 -47.31677193 42.88204511 -48 46 C-49.98 46 -51.96 46 -54 46 C-45.96257645 37.68237269 -36.50752453 31.06132665 -26.67016602 25.04394531 C-23.34871447 22.98820077 -20.73599549 20.76701584 -18 18 C-17.34 18 -16.68 18 -16 18 C-15.731875 17.360625 -15.46375 16.72125 -15.1875 16.0625 C-14 14 -14 14 -11 13 C-11 12.34 -11 11.68 -11 11 C-8.625 8.375 -8.625 8.375 -6 6 C-5.34 6 -4.68 6 -4 6 C-3.566875 5.071875 -3.566875 5.071875 -3.125 4.125 C-2 2 -2 2 0 0 Z " fill="#278745" transform="translate(207,200)"/>
<path d="M0 0 C0.66 0.33 1.32 0.66 2 1 C1.63648438 1.51046875 1.27296875 2.0209375 0.8984375 2.546875 C-3.39439362 8.75496923 -6.71376773 15.21827067 -10 22 C-11.45100201 24.92034534 -12.913171 27.83506258 -14.375 30.75 C-15.07050021 32.14053113 -15.76582855 33.53114824 -16.4609375 34.921875 C-16.96882813 35.93765625 -17.47671875 36.9534375 -18 38 C-18.66 38 -19.32 38 -20 38 C-20 38.66 -20 39.32 -20 40 C-20.66 40 -21.32 40 -22 40 C-22.33 40.99 -22.66 41.98 -23 43 C-24.7421875 44.71875 -24.7421875 44.71875 -26.875 46.5 C-29.85384531 49.00265321 -29.85384531 49.00265321 -32.6328125 51.71875 C-34 53 -34 53 -36 53 C-36 53.66 -36 54.32 -36 55 C-38.5 56.625 -38.5 56.625 -41 58 C-39.64096145 53.42868851 -38.01311731 52.34914184 -34 50 C-33.505 49.175 -33.01 48.35 -32.5 47.5 C-30.7242103 44.54035051 -29.0726184 43.49691666 -26 42 C-25.34 42 -24.68 42 -24 42 C-23.938125 41.071875 -23.87625 40.14375 -23.8125 39.1875 C-23 36 -23 36 -20.5625 34.3125 C-19.716875 33.879375 -18.87125 33.44625 -18 33 C-15.81319373 30.23254916 -15.81319373 30.23254916 -15.75 27.375 C-14.82399407 23.20797333 -12.89195773 20.64035646 -10.375 17.24609375 C-8.8803304 14.80451699 -8.39597197 12.81635061 -8 10 C-7.34 10 -6.68 10 -6 10 C-6.185625 8.9171875 -6.185625 8.9171875 -6.375 7.8125 C-5.93998169 4.54986264 -5.44438849 4.1958004 -3 2.1875 C-2.01 1.465625 -1.02 0.74375 0 0 Z " fill="#26863F" transform="translate(225,229)"/>
<path d="M0 0 C3.84655871 3.84655871 4.23499377 9.77245745 5 15 C4.01 15.33 3.02 15.66 2 16 C1.67 15.34 1.34 14.68 1 14 C-0.9648239 14.5181036 -0.9648239 14.5181036 -3 16 C-4.17750651 18.35501303 -5.11472289 20.54036521 -6 23 C-6.26941406 23.70382813 -6.53882813 24.40765625 -6.81640625 25.1328125 C-7.93817405 28.07000162 -9.00572998 31.01718994 -10 34 C-12.31 34 -14.62 34 -17 34 C-16.55269531 33.31035156 -16.10539063 32.62070313 -15.64453125 31.91015625 C-13.7419853 28.95289399 -11.86543112 25.98080347 -10 23 C-9.525625 22.24847656 -9.05125 21.49695313 -8.5625 20.72265625 C-5.32138771 15.28366469 -3.5147584 9.70799695 -1.796875 3.625 C-1 1 -1 1 0 0 Z " fill="#0C5C3B" transform="translate(250,210)"/>
<path d="M0 0 C3.63559661 3.43361902 6.36113346 6.7973607 9 11 C6.36 11 3.72 11 1 11 C1.34933594 11.53109375 1.69867188 12.0621875 2.05859375 12.609375 C2.51363281 13.31578125 2.96867187 14.0221875 3.4375 14.75 C4.11619141 15.79414063 4.11619141 15.79414063 4.80859375 16.859375 C5.9608009 18.92957014 6.54676982 20.68696324 7 23 C6.34 23.33 5.68 23.66 5 24 C3.68 22.68 2.36 21.36 1 20 C0.01 20.33 -0.98 20.66 -2 21 C-2.33 20.01 -2.66 19.02 -3 18 C-2.649375 17.360625 -2.29875 16.72125 -1.9375 16.0625 C-1.4734375 15.0415625 -1.4734375 15.0415625 -1 14 C-1.63270867 12.65022151 -2.30062468 11.31647119 -3 10 C-2.625 7.75 -2.625 7.75 -2 6 C-1.34 6 -0.68 6 0 6 C-0.2784375 4.7934375 -0.2784375 4.7934375 -0.5625 3.5625 C-0.706875 2.716875 -0.85125 1.87125 -1 1 C-0.67 0.67 -0.34 0.34 0 0 Z " fill="#0B5A3C" transform="translate(259,233)"/>
<path d="M0 0 C0.66 0 1.32 0 2 0 C2 8.91 2 17.82 2 27 C1.34 27 0.68 27 0 27 C0 20.73 0 14.46 0 8 C-2.475 7.505 -2.475 7.505 -5 7 C-6.41377341 9.63904371 -7.37240135 12.07120629 -8 15 C-8.556875 15.061875 -9.11375 15.12375 -9.6875 15.1875 C-12.9283878 16.32619031 -14.6312403 18.56890452 -17 21 C-17.66 21 -18.32 21 -19 21 C-19.33 21.66 -19.66 22.32 -20 23 C-20.66 22.34 -21.32 21.68 -22 21 C-21.38125 20.7525 -20.7625 20.505 -20.125 20.25 C-17.61289704 18.77229238 -17.23892656 17.56044823 -16 15 C-15.01 14.67 -14.02 14.34 -13 14 C-12.71253906 13.41605469 -12.42507812 12.83210937 -12.12890625 12.23046875 C-10.60407372 9.21773735 -8.47519962 7.52157664 -5.9375 5.3125 C-5.03902344 4.52488281 -4.14054687 3.73726562 -3.21484375 2.92578125 C-2.48394531 2.29027344 -1.75304687 1.65476563 -1 1 C-0.67 0.67 -0.34 0.34 0 0 Z " fill="#1F8540" transform="translate(248,160)"/>
<path d="M0 0 C0.66 0.33 1.32 0.66 2 1 C1.67 1.99 1.34 2.98 1 4 C-0.9375 4.625 -0.9375 4.625 -3 5 C-3.99 5.495 -3.99 5.495 -5 6 C-5.65555119 8.52733235 -5.65555119 8.52733235 -6 11 C-7.65 11.33 -9.3 11.66 -11 12 C-11.33 11.01 -11.66 10.02 -12 9 C-12.47050781 9.433125 -12.94101563 9.86625 -13.42578125 10.3125 C-14.04839844 10.869375 -14.67101562 11.42625 -15.3125 12 C-15.92738281 12.556875 -16.54226562 13.11375 -17.17578125 13.6875 C-19 15 -19 15 -22 15 C-22.20625 15.639375 -22.4125 16.27875 -22.625 16.9375 C-24 19 -24 19 -27.125 19.75 C-28.548125 19.87375 -28.548125 19.87375 -30 20 C-21.86075889 11.47103464 -11.04755855 4.19989829 0 0 Z " fill="#4D987C" transform="translate(198,98)"/>
<path d="M0 0 C0.33 0.66 0.66 1.32 1 2 C-0.12436254 5.37308761 -1.07342733 6.15123097 -3.75 8.375 C-6.98884437 11.12311037 -10.03435497 13.9542024 -13 17 C-15.60966048 19.67179526 -17.88855331 21.92570221 -21 24 C-20.67 24.99 -20.34 25.98 -20 27 C-21.98 26.34 -23.96 25.68 -26 25 C-24.6581656 20.97449681 -22.5772427 20.11714364 -19 18 C-18.34 18 -17.68 18 -17 18 C-17 17.34 -17 16.68 -17 16 C-15.49609375 14.5546875 -15.49609375 14.5546875 -13.4375 12.875 C-9.7107254 9.7241213 -6.55874291 6.35216006 -3.4453125 2.6015625 C-2 1 -2 1 0 0 Z " fill="#0E5F39" transform="translate(233,290)"/>
<path d="M0 0 C0.33 0 0.66 0 1 0 C0.99476318 0.98919434 0.98952637 1.97838867 0.98413086 2.99755859 C0.96605477 6.66144916 0.95455842 10.32533577 0.94506836 13.98925781 C0.94003412 15.57617861 0.93320631 17.16309477 0.92456055 18.75 C0.91245518 21.02865749 0.90676267 23.30725376 0.90234375 25.5859375 C0.89718246 26.29744965 0.89202118 27.00896179 0.88670349 27.74203491 C0.82685242 31.49593556 0.82685242 31.49593556 2 35 C2.039992 36.99960012 2.04346799 39.00047242 2 41 C2.66 41.33 3.32 41.66 4 42 C3.83628906 42.55171875 3.67257813 43.1034375 3.50390625 43.671875 C2.94239586 46.26614007 2.90260992 48.59835411 2.9375 51.25 C2.95103516 52.58804688 2.95103516 52.58804688 2.96484375 53.953125 C2.97644531 54.62859375 2.98804687 55.3040625 3 56 C2.67 56 2.34 56 2 56 C-0.42741183 45.27526983 -1.43172325 35.1044389 -1.28125 24.11401367 C-1.24950059 21.77571929 -1.24019999 19.43810021 -1.234375 17.09960938 C-1.2252234 15.59374178 -1.21485359 14.08788098 -1.203125 12.58203125 C-1.19887512 11.89244827 -1.19462524 11.2028653 -1.19024658 10.49238586 C-1.13672919 6.87886792 -0.84570693 3.51629348 0 0 Z " fill="#3F8E6F" transform="translate(124,194)"/>
<path d="M0 0 C0.33 0 0.66 0 1 0 C2.74255782 9.34635718 3.25472083 18.31793323 3.125 27.8125 C3.11597656 29.08931641 3.10695313 30.36613281 3.09765625 31.68164062 C3.07438789 34.78796716 3.04170155 37.89387572 3 41 C-0.65316671 39.75023244 -1.78065836 39.32901247 -4 36 C-2.35 36 -0.7 36 1 36 C0.67 24.12 0.34 12.24 0 0 Z " fill="#D2F1DA" transform="translate(352,190)"/>
<path d="M0 0 C0.99 0.33 1.98 0.66 3 1 C4.89470816 1.0685495 6.7916834 1.08480372 8.6875 1.0625 C9.68136719 1.05347656 10.67523438 1.04445313 11.69921875 1.03515625 C12.45847656 1.02355469 13.21773437 1.01195312 14 1 C10.30620592 7.08867157 6.6249793 11.61251614 1 16 C1.66 14.35 2.32 12.7 3 11 C3.66 11 4.32 11 5 11 C4.42655063 8.13275314 4.1385485 7.1385485 2 5 C2.99 4.67 3.98 4.34 5 4 C2.525 3.01 2.525 3.01 0 2 C0 1.34 0 0.68 0 0 Z " fill="#5BA652" transform="translate(223,264)"/>
<path d="M0 0 C0.33 0 0.66 0 1 0 C1.15231879 13.18403779 1.00292457 26.08450887 -2 39 C-2.33 39 -2.66 39 -3 39 C-3.19393875 36.85473901 -3.37998676 34.70876323 -3.5625 32.5625 C-3.71912109 30.77005859 -3.71912109 30.77005859 -3.87890625 28.94140625 C-3.91886719 27.97074219 -3.95882813 27.00007813 -4 26 C-3.67 25.67 -3.34 25.34 -3 25 C-2.76712992 23.31816052 -2.58735834 21.6287584 -2.4375 19.9375 C-2.35371094 19.01839844 -2.26992188 18.09929687 -2.18359375 17.15234375 C-2.12300781 16.44207031 -2.06242187 15.73179687 -2 15 C-1.34 15 -0.68 15 0 15 C0 10.05 0 5.1 0 0 Z " fill="#409273" transform="translate(377,208)"/>
<path d="M0 0 C5.28 0 10.56 0 16 0 C14.14354796 3.71290407 12.38440446 6.02348811 9.625 9.0625 C8.85414063 9.91972656 8.08328125 10.77695312 7.2890625 11.66015625 C5.29415514 13.69931924 3.33480265 15.37416711 1 17 C1 16.01 1 15.02 1 14 C2.32 13.34 3.64 12.68 5 12 C5 11.34 5 10.68 5 10 C5.66 10 6.32 10 7 10 C6.67 8.68 6.34 7.36 6 6 C7.65 5.34 9.3 4.68 11 4 C11 3.67 11 3.34 11 3 C10.28972656 2.95101563 9.57945312 2.90203125 8.84765625 2.8515625 C7.92855469 2.77679688 7.00945312 2.70203125 6.0625 2.625 C5.14597656 2.55539062 4.22945312 2.48578125 3.28515625 2.4140625 C2.15400391 2.20910156 2.15400391 2.20910156 1 2 C0.67 1.34 0.34 0.68 0 0 Z " fill="#58A459" transform="translate(216,289)"/>
<path d="M0 0 C3.91017872 0.11045703 5.72284213 1.45208314 8.33203125 4.16015625 C9.50350077 5.45075826 10.66337697 6.7519617 11.8125 8.0625 C12.40998047 8.72572266 13.00746094 9.38894531 13.62304688 10.07226562 C15.09233411 11.70611303 16.55057038 13.348546 18 15 C15 16 15 16 12 15 C12 14.34 12 13.68 12 13 C11.01 13.33 10.02 13.66 9 14 C8.67 11.69 8.34 9.38 8 7 C6.68 7 5.36 7 4 7 C3.34 7.66 2.68 8.32 2 9 C2 6.36 2 3.72 2 1 C1.34 0.67 0.68 0.34 0 0 Z " fill="#7AB165" transform="translate(248,159)"/>
<path d="M0 0 C0.66 0.33 1.32 0.66 2 1 C-8 11 -8 11 -10.70703125 13.69921875 C-12.15785115 15.15498182 -13.59139221 16.62835422 -15 18.125 C-17.19532064 20.1831131 -19.30893857 21.65446929 -22 23 C-22.66 22.67 -23.32 22.34 -24 22 C-23.0479279 20.99403703 -22.08812654 19.99538437 -21.125 19 C-20.59132812 18.443125 -20.05765625 17.88625 -19.5078125 17.3125 C-18 16 -18 16 -16 16 C-16 15.34 -16 14.68 -16 14 C-14.42578125 12.4140625 -14.42578125 12.4140625 -12.3125 10.625 C-11.58289063 10.00367188 -10.85328125 9.38234375 -10.1015625 8.7421875 C-7.75735955 6.79885197 -5.37766514 4.90213211 -3 3 C-1.9826127 2.01769502 -0.97403883 1.02530403 0 0 Z " fill="#58A956" transform="translate(205,268)"/>
<path d="M0 0 C2.7697841 1.4714478 4.19083529 3.54259201 6 6.0625 C-0.625 7.1875 -0.625 7.1875 -4 6.0625 C-5.83863356 7.26912716 -5.83863356 7.26912716 -7.5625 9 C-10.80637813 12.0625 -10.80637813 12.0625 -13 12.0625 C-13 11.4025 -13 10.7425 -13 10.0625 C-11.609375 8.6953125 -11.609375 8.6953125 -9.75 7.1875 C-7.5684084 5.40096523 -5.70483733 3.73360445 -3.8125 1.625 C-2 0.0625 -2 0.0625 0 0 Z " fill="#9CCA8B" transform="translate(309,191.9375)"/>
<path d="M0 0 C0.33 0.66 0.66 1.32 1 2 C-0.695241 6.2827141 -1.85640508 8.12869907 -6 10 C-6.433125 10.99 -6.433125 10.99 -6.875 12 C-8 14 -8 14 -11.0625 15 C-12.5165625 15.495 -12.5165625 15.495 -14 16 C-14.96877057 18.03243548 -14.96877057 18.03243548 -15 20 C-16.65 20.33 -18.3 20.66 -20 21 C-19.01 19.515 -19.01 19.515 -18 18 C-17.34 18 -16.68 18 -16 18 C-15.731875 17.360625 -15.46375 16.72125 -15.1875 16.0625 C-14 14 -14 14 -11 13 C-11 12.34 -11 11.68 -11 11 C-8.625 8.375 -8.625 8.375 -6 6 C-5.34 6 -4.68 6 -4 6 C-3.566875 5.071875 -3.566875 5.071875 -3.125 4.125 C-2 2 -2 2 0 0 Z " fill="#318A4B" transform="translate(207,200)"/>
<path d="M0 0 C1.32 0.66 2.64 1.32 4 2 C3.37351562 2.83144531 2.74703125 3.66289062 2.1015625 4.51953125 C1.27599902 5.61715542 0.45048054 6.71481345 -0.375 7.8125 C-0.7875 8.35970703 -1.2 8.90691406 -1.625 9.47070312 C-3.48407032 11.94446605 -5.28289972 14.42434959 -7 17 C-7.66 17 -8.32 17 -9 17 C-9.33 17.66 -9.66 18.32 -10 19 C-10.33 17.68 -10.66 16.36 -11 15 C-10.195625 14.773125 -9.39125 14.54625 -8.5625 14.3125 C-7.716875 13.879375 -6.87125 13.44625 -6 13 C-5.10613836 10.45224694 -5.10613836 10.45224694 -5 8 C-4.34 8 -3.68 8 -3 8 C-2.87625 7.4225 -2.7525 6.845 -2.625 6.25 C-1.99351176 3.97664233 -1.11141809 2.0746471 0 0 Z " fill="#358E6E" transform="translate(349,293)"/>
<path d="M0 0 C0 3.81094059 -1.00717021 5.77024137 -3 9 C-5.5625 10.1875 -5.5625 10.1875 -8 11 C-8.99 12.485 -8.99 12.485 -10 14 C-10.99 14 -11.98 14 -13 14 C-13 14.99 -13 15.98 -13 17 C-14.3125 18.6875 -14.3125 18.6875 -16 20 C-16.99 20 -17.98 20 -19 20 C-19.66 21.32 -20.32 22.64 -21 24 C-21.66 23.67 -22.32 23.34 -23 23 C-22.2575 22.278125 -21.515 21.55625 -20.75 20.8125 C-18.04961342 18.16513453 -18.04961342 18.16513453 -16.1875 15.625 C-13.71168705 12.65402446 -10.9736315 10.28717409 -8.0390625 7.78125 C-5.21734625 5.31630247 -2.61576151 2.68115555 0 0 Z " fill="#8CBE83" transform="translate(169,206)"/>
<path d="M0 0 C0.66 1.32 1.32 2.64 2 4 C0.35446591 5.69393215 -1.30419392 7.35732623 -3 9 C-3.75603516 9.73283203 -3.75603516 9.73283203 -4.52734375 10.48046875 C-6.0625 11.875 -6.0625 11.875 -9 14 C-10.32 13.67 -11.64 13.34 -13 13 C-8.71 8.71 -4.42 4.42 0 0 Z " fill="#3B8E5C" transform="translate(225,182)"/>
<path d="M0 0 C3.36591866 1.44253657 5.51047079 3.33264727 8 6 C7.67 6.66 7.34 7.32 7 8 C5.54207116 8.05399736 4.08357288 8.09279177 2.625 8.125 C1.81289063 8.14820313 1.00078125 8.17140625 0.1640625 8.1953125 C-2 8 -2 8 -4 6 C-2.68 5.67 -1.36 5.34 0 5 C0 3.35 0 1.7 0 0 Z " fill="#085839" transform="translate(268,258)"/>
<path d="M0 0 C2.875 0.1875 2.875 0.1875 6 1 C6.68132451 2.66072849 7.34742127 4.327767 8 6 C11.02982306 7.37189827 11.02982306 7.37189827 14 8 C13.67 8.99 13.34 9.98 13 11 C8.02753179 10.84931915 5.73646624 8.14378072 2.453125 4.7890625 C1 3 1 3 0 0 Z " fill="#417C6B" transform="translate(243,392)"/>
<path d="M0 0 C0.144375 0.598125 0.28875 1.19625 0.4375 1.8125 C0.8872439 3.56150404 1.42892341 5.28677023 2 7 C1.0625 9.1875 1.0625 9.1875 0 11 C-1.32 11 -2.64 11 -4 11 C-4.33 11.99 -4.66 12.98 -5 14 C-5.66 14 -6.32 14 -7 14 C-6.67 12.35 -6.34 10.7 -6 9 C-5.34 9 -4.68 9 -4 9 C-3.896875 8.2575 -3.79375 7.515 -3.6875 6.75 C-2.95746496 3.82985982 -1.93210602 2.26812446 0 0 Z " fill="#3D9574" transform="translate(142,147)"/>
<path d="M0 0 C3.0831351 1.19899698 6.06279492 2.47700477 9 4 C9 4.66 9 5.32 9 6 C9.7425 6.2475 10.485 6.495 11.25 6.75 C14.20124062 8.09147301 15.84814974 9.60905526 18 12 C15 13 15 13 13.17578125 12.109375 C12.56089844 11.66078125 11.94601562 11.2121875 11.3125 10.75 C10.68988281 10.31171875 10.06726563 9.8734375 9.42578125 9.421875 C8.72001953 8.71804687 8.72001953 8.71804687 8 8 C8 7.01 8 6.02 8 5 C6.68 5 5.36 5 4 5 C3.34 4.34 2.68 3.68 2 3 C1.34 2.67 0.68 2.34 0 2 C0 1.34 0 0.68 0 0 Z " fill="#459475" transform="translate(312,104)"/>
<path d="M0 0 C0.66 0 1.32 0 2 0 C3.3440093 1.99284138 4.67541292 3.99419671 6 6 C6.825 6.825 7.65 7.65 8.5 8.5 C11.18235481 11.18235481 12.99067289 13.79996053 15 17 C11.82461668 16.65978036 10.97723135 15.97533396 8.75 13.5625 C7 11 7 11 7 9 C6.01 8.67 5.02 8.34 4 8 C2.6256709 6.70896357 1.29103643 5.3743291 0 4 C-0.66 3.34 -1.32 2.68 -2 2 C-1.34 2 -0.68 2 0 2 C0 1.34 0 0.68 0 0 Z " fill="#0D5E34" transform="translate(264,267)"/>
<path d="M0 0 C0.33 0.66 0.66 1.32 1 2 C0.360625 2.9075 -0.27875 3.815 -0.9375 4.75 C-2.69064844 7.51253694 -3.27085189 8.97924352 -4 12 C-4.474375 12.433125 -4.94875 12.86625 -5.4375 13.3125 C-7.77838239 15.84065298 -8.19329544 18.71112757 -9 22 C-9.99 21.67 -10.98 21.34 -12 21 C-4.88610478 6.21867882 -4.88610478 6.21867882 0 0 Z " fill="#D0EDDC" transform="translate(165,154)"/>
<path d="M0 0 C3.25516428 3.16474305 6.32008793 6.32752791 9 10 C9 10.66 9 11.32 9 12 C3.5 10.53333333 3.5 10.53333333 1.125 8 C-0.46378442 5.17549436 0 3.36339104 0 0 Z " fill="#389170" transform="translate(347,133)"/>
<path d="M0 0 C0.66 0.33 1.32 0.66 2 1 C1.67 1.99 1.34 2.98 1 4 C-0.9375 4.625 -0.9375 4.625 -3 5 C-3.99 5.495 -3.99 5.495 -5 6 C-5.65555119 8.52733235 -5.65555119 8.52733235 -6 11 C-7.65 11.33 -9.3 11.66 -11 12 C-11.33 11.01 -11.66 10.02 -12 9 C-11.34 8.67 -10.68 8.34 -10 8 C-9.71125 7.36707031 -9.4225 6.73414062 -9.125 6.08203125 C-7.75085675 3.53891197 -6.58204245 2.91681801 -4 1.6875 C-3.29875 1.34074219 -2.5975 0.99398437 -1.875 0.63671875 C-1.25625 0.42660156 -0.6375 0.21648437 0 0 Z " fill="#31906B" transform="translate(198,98)"/>
<path d="M0 0 C1.32413316 2.19217601 2.06555365 3.44913787 1.7578125 6.03515625 C1.44457031 7.03869141 1.44457031 7.03869141 1.125 8.0625 C0.34889209 10.62169129 0 12.27021505 0 15 C-1.65 15 -3.3 15 -5 15 C-4.43174347 9.45949887 -2.37113483 4.96284034 0 0 Z " fill="#429A79" transform="translate(134,161)"/>
<path d="M0 0 C0.33 0.66 0.66 1.32 1 2 C0.34 2 -0.32 2 -1 2 C-1.18175781 2.58007812 -1.36351562 3.16015625 -1.55078125 3.7578125 C-3.0418106 8.39147293 -4.68333576 12.69762355 -7 17 C-7.33 17 -7.66 17 -8 17 C-7.14663144 5.4346103 -7.14663144 5.4346103 -5 2 C-2.375 0.6875 -2.375 0.6875 0 0 Z " fill="#24863F" transform="translate(247,188)"/>
<path d="M0 0 C0.33 0 0.66 0 1 0 C1 1.98 1 3.96 1 6 C1.99 6.33 2.98 6.66 4 7 C4.33 8.98 4.66 10.96 5 13 C6.32 13.33 7.64 13.66 9 14 C8 16 8 16 6 17 C4.84735447 15.25447936 3.70312673 13.50339804 2.5625 11.75 C1.92441406 10.77546875 1.28632813 9.8009375 0.62890625 8.796875 C-0.7576136 6.41618385 -1.546581 4.68219693 -2 2 C-1.34 2 -0.68 2 0 2 C0 1.34 0 0.68 0 0 Z " fill="#429476" transform="translate(139,274)"/>
<path d="M0 0 C0.70703125 1.765625 0.70703125 1.765625 1 4 C-0.36328125 5.921875 -0.36328125 5.921875 -2.3125 7.75 C-3.26576172 8.67039063 -3.26576172 8.67039063 -4.23828125 9.609375 C-6 11 -6 11 -8 11 C-8.33 11.66 -8.66 12.32 -9 13 C-9.66 12.34 -10.32 11.68 -11 11 C-10.38125 10.7525 -9.7625 10.505 -9.125 10.25 C-6.61289704 8.77229238 -6.23892656 7.56044823 -5 5 C-4.01 4.67 -3.02 4.34 -2 4 C-0.79117904 1.99983534 -0.79117904 1.99983534 0 0 Z " fill="#489767" transform="translate(237,170)"/>
<path d="M0 0 C0.66 0 1.32 0 2 0 C2.66 4.62 3.32 9.24 4 14 C5.32 14.33 6.64 14.66 8 15 C5.525 16.485 5.525 16.485 3 18 C2.49490792 15.75113762 1.99610821 13.50086131 1.5 11.25 C1.2215625 9.99703125 0.943125 8.7440625 0.65625 7.453125 C0 4 0 4 0 0 Z " fill="#6ABE78" transform="translate(146,230)"/>
<path d="M0 0 C5.06998019 0.65419099 9.41990777 2.8546409 14 5 C10.2183013 6.02230536 6.93375193 6.35761381 3 6 C1.0625 4.125 1.0625 4.125 0 2 C0 1.34 0 0.68 0 0 Z " fill="#459979" transform="translate(297,97)"/>
<path d="M0 0 C1.79341438 4.16673521 0.01173384 7.74663341 -1.4375 11.75 C-1.68048828 12.44738281 -1.92347656 13.14476562 -2.17382812 13.86328125 C-2.77310248 15.57885098 -3.38529885 17.28989715 -4 19 C-4.66 19 -5.32 19 -6 19 C-5.5495586 13.68479149 -4.96465334 10.50627308 -2 6 C-1.28856912 4.01548229 -0.61008664 2.01797888 0 0 Z " fill="#7BC582" transform="translate(352,238)"/>
<path d="M0 0 C0.66 0.33 1.32 0.66 2 1 C1.34 1.66 0.68 2.32 0 3 C-0.69748583 4.31747324 -1.36959957 5.64914193 -2 7 C-2.99 7 -3.98 7 -5 7 C-6.41377341 9.63904371 -7.37240135 12.07120629 -8 15 C-8.66 15 -9.32 15 -10 15 C-10.5 12.4375 -10.5 12.4375 -10 9 C-7.58509509 6.33698842 -4.82944069 4.20446383 -2 2 C-1.34 1.34 -0.68 0.68 0 0 Z " fill="#2C8751" transform="translate(248,160)"/>
<path d="M0 0 C1.17539996 0.92652701 2.34010577 1.86663387 3.5 2.8125 C4.1496875 3.33457031 4.799375 3.85664063 5.46875 4.39453125 C7 6 7 6 7 9 C6.443125 8.649375 5.88625 8.29875 5.3125 7.9375 C2.46113217 6.78154007 0.91482778 7.19032562 -2 8 C-1.47731534 5.23723823 -0.89130413 2.6739124 0 0 Z " fill="#E8F5E8" transform="translate(324,142)"/>
<path d="M0 0 C0.33 0.66 0.66 1.32 1 2 C-1.77762123 5.60062011 -4.73991357 8.83047153 -8 12 C-8.99 11.34 -9.98 10.68 -11 10 C-5.555 5.05 -5.555 5.05 0 0 Z " fill="#529E81" transform="translate(167,118)"/>
<path d="M0 0 C0.33 0 0.66 0 1 0 C1.33 2.64 1.66 5.28 2 8 C3.65 8.33 5.3 8.66 7 9 C4.07914607 10.94723595 2.40667322 11.55175352 -1 12 C-1.33 11.67 -1.66 11.34 -2 11 C-1.62206515 7.09467317 -1.23947487 3.7184246 0 0 Z " fill="#5AA087" transform="translate(168,362)"/>
<path d="M0 0 C0.66 0.66 1.32 1.32 2 2 C0.125 7.75 0.125 7.75 -1 10 C-5.00390625 5.60546875 -5.00390625 5.60546875 -6 4 C-5.67 3.01 -5.34 2.02 -5 1 C-2.625 0.375 -2.625 0.375 0 0 Z " fill="#057A4E" transform="translate(158,296)"/>
<path d="M0 0 C1.20628008 2.33214148 2.1654738 4.49642139 3 7 C2.00390625 9.26171875 2.00390625 9.26171875 0.5625 11.6875 C0.08941406 12.49574219 -0.38367188 13.30398437 -0.87109375 14.13671875 C-1.24363281 14.75160156 -1.61617188 15.36648437 -2 16 C-2.33 16 -2.66 16 -3 16 C-2.52013969 10.43109483 -1.70084819 5.32932432 0 0 Z " fill="#4E9D80" transform="translate(128,176)"/>
<path d="M0 0 C1 2 1 2 1 6 C-2 8.25 -2 8.25 -5 10 C-4.34 10.33 -3.68 10.66 -3 11 C-3.99 11.66 -4.98 12.32 -6 13 C-6.99 12.67 -7.98 12.34 -9 12 C-7.625 9.5 -7.625 9.5 -6 7 C-5.34 7 -4.68 7 -4 7 C-3.71125 6.401875 -3.4225 5.80375 -3.125 5.1875 C-2 3 -2 3 0 0 Z " fill="#4A9C7F" transform="translate(155,129)"/>
<path d="M0 0 C0.33 0.99 0.66 1.98 1 3 C3.47288594 5.13179822 6.04582705 6.6284197 9 8 C7.29296875 8.67578125 7.29296875 8.67578125 5 9 C2.67578125 7.85546875 2.67578125 7.85546875 0.3125 6.1875 C-0.47511719 5.64480469 -1.26273438 5.10210937 -2.07421875 4.54296875 C-4 3 -4 3 -5 1 C-2 0 -2 0 0 0 Z " fill="#56A759" transform="translate(199,305)"/>
<path d="M0 0 C2.64 0 5.28 0 8 0 C8 0.66 8 1.32 8 2 C7.01 2.66 6.02 3.32 5 4 C5.33 5.65 5.66 7.3 6 9 C0.42857143 3.85714286 0.42857143 3.85714286 0 0 Z " fill="#55A053" transform="translate(260,244)"/>
<path d="M0 0 C0.66 0 1.32 0 2 0 C2.268125 0.763125 2.53625 1.52625 2.8125 2.3125 C3.9717361 4.93603434 4.75255646 6.27119728 7 8 C9.10332891 8.71447643 9.10332891 8.71447643 11 9 C10.67 10.32 10.34 11.64 10 13 C6.37 10.03 2.74 7.06 -1 4 C-0.67 2.68 -0.34 1.36 0 0 Z " fill="#52A85B" transform="translate(179,291)"/>
<path d="M0 0 C0.6875 1.625 0.6875 1.625 1 4 C-0.25 6.875 -0.25 6.875 -2 10 C-2.7115625 11.546875 -2.7115625 11.546875 -3.4375 13.125 C-4.9886398 15.97909724 -6.5947808 17.84359658 -9 20 C-7.7677699 15.92416198 -6.22447827 12.61477719 -4 9 C-3.31246699 7.34183216 -2.64438717 5.67540664 -2 4 C-1.34786461 2.65949948 -0.68620031 1.32338632 0 0 Z " fill="#57A954" transform="translate(216,247)"/>
<path d="M0 0 C0.33 0.99 0.66 1.98 1 3 C0.443125 2.649375 -0.11375 2.29875 -0.6875 1.9375 C-3.64625953 0.7380029 -4.97688902 1.04145262 -8 2 C-10.74572728 3.47987963 -10.74572728 3.47987963 -13 5 C-12.14105457 2.28000614 -11.5103829 0.43477062 -9.3125 -1.4375 C-5.76897758 -2.29943789 -3.32804764 -1.31866038 0 0 Z " fill="#58AA57" transform="translate(318,253)"/>
<path d="M0 0 C0.33 0 0.66 0 1 0 C1.05386629 2.12472576 1.09273071 4.24983652 1.125 6.375 C1.14820313 7.55835938 1.17140625 8.74171875 1.1953125 9.9609375 C1 13 1 13 -1 15 C-1.64767793 17.57061311 -1.64767793 17.57061311 -2 20 C-2.33 20 -2.66 20 -3 20 C-2.33644956 13.25390382 -1.28134207 6.65551466 0 0 Z " fill="#579D81" transform="translate(176,329)"/>
<path d="M0 0 C0.66 0 1.32 0 2 0 C1.64950425 3.24208567 1.43778819 4.61527704 -1.0625 6.8125 C-1.701875 7.204375 -2.34125 7.59625 -3 8 C-4.4606285 5.35261084 -5 4.10551666 -5 1 C-2.525 1.495 -2.525 1.495 0 2 C0 1.34 0 0.68 0 0 Z " fill="#318C69" transform="translate(134,256)"/>
<path d="M0 0 C0.33 0 0.66 0 1 0 C1.33 5.94 1.66 11.88 2 18 C2.99 18.33 3.98 18.66 5 19 C4.34 19 3.68 19 3 19 C2.34 20.32 1.68 21.64 1 23 C0.67 23 0.34 23 0 23 C0 15.41 0 7.82 0 0 Z " fill="#E7FAE4" transform="translate(146,206)"/>
<path d="M0 0 C0.66 0.33 1.32 0.66 2 1 C-4.31117397 8.91607732 -4.31117397 8.91607732 -9 11 C-9.66 10.67 -10.32 10.34 -11 10 C-10.01 9.67 -9.02 9.34 -8 9 C-8 8.34 -8 7.68 -8 7 C-7.34 7 -6.68 7 -6 7 C-6 6.34 -6 5.68 -6 5 C-5.34 5 -4.68 5 -4 5 C-4 4.34 -4 3.68 -4 3 C-2 1.375 -2 1.375 0 0 Z " fill="#D0ECDB" transform="translate(185,133)"/>
<path d="M0 0 C1.9375 0.6875 1.9375 0.6875 2.9375 2.6875 C1.390625 2.7803125 1.390625 2.7803125 -0.1875 2.875 C-4.94712827 3.87298657 -6.59842963 5.39240867 -10.0625 8.6875 C-10.7225 8.3575 -11.3825 8.0275 -12.0625 7.6875 C-10.77314081 6.53907077 -9.48093421 5.39383773 -8.1875 4.25 C-7.10855469 3.29287109 -7.10855469 3.29287109 -6.0078125 2.31640625 C-2.74479647 -0.41587825 -2.74479647 -0.41587825 0 0 Z " fill="#2C8940" transform="translate(314.0625,253.3125)"/>
<path d="M0 0 C2.64 0 5.28 0 8 0 C6.75023244 3.65316671 6.32901247 4.78065836 3 7 C2.01 4.69 1.02 2.38 0 0 Z " fill="#4E9C50" transform="translate(233,244)"/>
<path d="M0 0 C-0.57021934 5.3503559 -1.20734361 10.67787852 -2 16 C-2.33 16 -2.66 16 -3 16 C-3.24887295 13.89807303 -3.4734719 11.79326036 -3.6875 9.6875 C-3.81511719 8.51574219 -3.94273437 7.34398437 -4.07421875 6.13671875 C-4 3 -4 3 -2.58203125 1.08203125 C-1 0 -1 0 0 0 Z " fill="#499D7C" transform="translate(377,231)"/>
<path d="M0 0 C1.32 0 2.64 0 4 0 C4.12375 0.639375 4.2475 1.27875 4.375 1.9375 C4.684375 2.9584375 4.684375 2.9584375 5 4 C7.11785113 5.11785113 7.11785113 5.11785113 10 6 C10 7.65 10 9.3 10 11 C5.58690458 7.84778899 2.99206986 4.44536093 0 0 Z " fill="#E2F6D3" transform="translate(282,192)"/>
<path d="M0 0 C0.99 0.33 1.98 0.66 3 1 C3 3.97 3 6.94 3 10 C1 8.625 1 8.625 -1 7 C-1 6.34 -1 5.68 -1 5 C-1.66 5 -2.32 5 -3 5 C-3 4.34 -3 3.68 -3 3 C-2.01 3 -1.02 3 0 3 C0 2.01 0 1.02 0 0 Z " fill="#417C6C" transform="translate(236,378)"/>
<path d="M0 0 C0.66 0.33 1.32 0.66 2 1 C2 1.66 2 2.32 2 3 C-2.42778844 5.74522883 -5.71862571 7.48474397 -11 8 C-8.83385197 5.69125289 -6.60793392 3.94709819 -3.9375 2.25 C-2.89916016 1.57710938 -2.89916016 1.57710938 -1.83984375 0.890625 C-1.23269531 0.59671875 -0.62554687 0.3028125 0 0 Z " fill="#D4EDDD" transform="translate(202,122)"/>
<path d="M0 0 C0.66 0 1.32 0 2 0 C1.4739075 3.78786597 0.61896089 6.17152224 -2 9 C-2.66 9 -3.32 9 -4 9 C-4.33 9.66 -4.66 10.32 -5 11 C-5.33 9.68 -5.66 8.36 -6 7 C-4.7934375 6.6596875 -4.7934375 6.6596875 -3.5625 6.3125 C-2.716875 5.879375 -1.87125 5.44625 -1 5 C-0.10613836 2.45224694 -0.10613836 2.45224694 0 0 Z " fill="#429375" transform="translate(344,301)"/>
<path d="M0 0 C2.97 0.33 5.94 0.66 9 1 C9 2.65 9 4.3 9 6 C9.66 6 10.32 6 11 6 C10.67 6.66 10.34 7.32 10 8 C8.33055479 6.85821872 6.6645052 5.71147095 5 4.5625 C4.071875 3.92441406 3.14375 3.28632813 2.1875 2.62890625 C1.465625 2.09136719 0.74375 1.55382812 0 1 C0 0.67 0 0.34 0 0 Z " fill="#E6F5D9" transform="translate(324,208)"/>
<path d="M0 0 C6.40353322 -0.2361959 11.84629161 0.176679 18 2 C18 2.33 18 2.66 18 3 C11.64012196 3.20190089 6.14778871 2.6277833 0 1 C0 0.67 0 0.34 0 0 Z " fill="#DCF7E7" transform="translate(256,112)"/>
<path d="M0 0 C0.66 0 1.32 0 2 0 C1.34 1.65 0.68 3.3 0 5 C-0.66 5 -1.32 5 -2 5 C-2 5.66 -2 6.32 -2 7 C-2.66 7 -3.32 7 -4 7 C-4.66 8.32 -5.32 9.64 -6 11 C-6.33 9.68 -6.66 8.36 -7 7 C-6.360625 6.731875 -5.72125 6.46375 -5.0625 6.1875 C-2.66868314 5.11332248 -2.66868314 5.11332248 -2 2 C-1.34 2 -0.68 2 0 2 C0 1.34 0 0.68 0 0 Z " fill="#578778" transform="translate(282,372)"/>
<path d="M0 0 C1.98 0 3.96 0 6 0 C5.01 0.495 5.01 0.495 4 1 C3.566875 1.928125 3.566875 1.928125 3.125 2.875 C1.80519587 5.36796335 0.32278328 6.45147781 -2 8 C-2 7.01 -2 6.02 -2 5 C-2.66 4.67 -3.32 4.34 -4 4 C-3.34 3.67 -2.68 3.34 -2 3 C-1.34 3.33 -0.68 3.66 0 4 C0 2.68 0 1.36 0 0 Z " fill="#498170" transform="translate(300,350)"/>
<path d="M0 0 C3.24208567 0.35049575 4.61527704 0.56221181 6.8125 3.0625 C7.204375 3.701875 7.59625 4.34125 8 5 C6.02 5.66 4.04 6.32 2 7 C2 5.02 2 3.04 2 1 C1.34 0.67 0.68 0.34 0 0 Z " fill="#9FC98B" transform="translate(184,191)"/>
<path d="M0 0 C2.73704754 2.73704754 3.16182449 5.26044774 4 9 C3.625 11.4375 3.625 11.4375 3 13 C0.9375 10.75 0.9375 10.75 -1 8 C-0.75 5.9375 -0.75 5.9375 0 4 C0 2.68 0 1.36 0 0 Z " fill="#539D7F" transform="translate(370,173)"/>
<path d="M0 0 C0.99 0.66 1.98 1.32 3 2 C1.38405168 4.04119788 -0.2856382 6.04072937 -2 8 C-2.66 8 -3.32 8 -4 8 C-4.33 8.66 -4.66 9.32 -5 10 C-5.33 8.68 -5.66 7.36 -6 6 C-5.34 6 -4.68 6 -4 6 C-4 5.34 -4 4.68 -4 4 C-2.70766393 2.62689293 -1.37562854 1.28965176 0 0 Z " fill="#427A69" transform="translate(264,390)"/>
<path d="M0 0 C1.125 3.75 1.125 3.75 0 6 C0.66 6.33 1.32 6.66 2 7 C1.67 7.99 1.34 8.98 1 10 C0.34 10 -0.32 10 -1 10 C-1.33 10.99 -1.66 11.98 -2 13 C-3.18771723 9.57056481 -2.80226223 7.62215325 -1.5625 4.25 C-1.27503906 3.45078125 -0.98757812 2.6515625 -0.69140625 1.828125 C-0.46324219 1.22484375 -0.23507813 0.6215625 0 0 Z " fill="#61A58C" transform="translate(172,349)"/>
<path d="M0 0 C3.4584768 1.7292384 4.56805895 5.53684743 6 9 C6.75 12.5 6.75 12.5 7 15 C6.34 15 5.68 15 5 15 C4.71125 14.05125 4.4225 13.1025 4.125 12.125 C3.23174891 8.94788422 3.23174891 8.94788422 1 7 C0.59952556 4.67724823 0.2602896 2.34260643 0 0 Z " fill="#66AB90" transform="translate(362,155)"/>
<path d="M0 0 C1.32 0 2.64 0 4 0 C4 0.66 4 1.32 4 2 C6.97 2 9.94 2 13 2 C13 2.66 13 3.32 13 4 C11.04098546 3.88617347 9.0827662 3.75858875 7.125 3.625 C6.03445313 3.55539063 4.94390625 3.48578125 3.8203125 3.4140625 C1 3 1 3 -1 1 C-0.67 0.67 -0.34 0.34 0 0 Z " fill="#207E59" transform="translate(259,109)"/>
<path d="M0 0 C2.125 0.9375 2.125 0.9375 4 2 C3.67 3.65 3.34 5.3 3 7 C1.68 6.67 0.36 6.34 -1 6 C-1.33 4.35 -1.66 2.7 -2 1 C-1.34 0.67 -0.68 0.34 0 0 Z " fill="#065A41" transform="translate(251,392)"/>
<path d="M0 0 C0.99 0.33 1.98 0.66 3 1 C2.42655063 3.86724686 2.1385485 4.8614515 0 7 C-0.99 6.67 -1.98 6.34 -3 6 C-1.125 1.125 -1.125 1.125 0 0 Z " fill="#017A4E" transform="translate(171,364)"/>
<path d="M0 0 C3.63 0.33 7.26 0.66 11 1 C11 1.33 11 1.66 11 2 C9.02 2 7.04 2 5 2 C5.33 3.32 5.66 4.64 6 6 C5.01 6 4.02 6 3 6 C2.01 4.02 1.02 2.04 0 0 Z " fill="#59A259" transform="translate(264,265)"/>
<path d="M0 0 C0.99 0.33 1.98 0.66 3 1 C4.89470816 1.0685495 6.7916834 1.08480372 8.6875 1.0625 C9.68136719 1.05347656 10.67523438 1.04445313 11.69921875 1.03515625 C12.45847656 1.02355469 13.21773437 1.01195312 14 1 C12.515 3.475 12.515 3.475 11 6 C10.34 5.67 9.68 5.34 9 5 C9 4.34 9 3.68 9 3 C7.88625 3.020625 6.7725 3.04125 5.625 3.0625 C2 3 2 3 0 2 C0 1.34 0 0.68 0 0 Z " fill="#56A159" transform="translate(223,264)"/>
<path d="M0 0 C0 3 0 3 -2.25 5.75 C-3.1575 6.4925 -4.065 7.235 -5 8 C-7.171875 7.640625 -7.171875 7.640625 -9 7 C-7.87720538 6.01830524 -6.75168527 5.03972702 -5.625 4.0625 C-4.68527344 3.24458984 -4.68527344 3.24458984 -3.7265625 2.41015625 C-2 1 -2 1 0 0 Z " fill="#288842" transform="translate(301,262)"/>
<path d="M0 0 C0.33 0 0.66 0 1 0 C1.33951619 1.56116819 1.67132544 3.12401338 2 4.6875 C2.185625 5.55761719 2.37125 6.42773438 2.5625 7.32421875 C2.98972047 9.93712964 3.07616201 12.35813038 3 15 C2.01 14.34 1.02 13.68 0 13 C-0.29296875 9.9609375 -0.29296875 9.9609375 -0.1875 6.375 C-0.16042969 5.18648437 -0.13335937 3.99796875 -0.10546875 2.7734375 C-0.07066406 1.85820312 -0.03585937 0.94296875 0 0 Z " fill="#5C9E84" transform="translate(374,186)"/>
<path d="M0 0 C0 1.65 0 3.3 0 5 C-1.98 5.99 -1.98 5.99 -4 7 C-5 6 -5 6 -5.0625 3.4375 C-5.041875 2.633125 -5.02125 1.82875 -5 1 C-2 0 -2 0 0 0 Z " fill="#0D7C52" transform="translate(167,148)"/>
<path d="M0 0 C0.99 0.33 1.98 0.66 3 1 C0.69 3.64 -1.62 6.28 -4 9 C-5 5 -5 5 -4 3 C-3.01 3 -2.02 3 -1 3 C-0.67 2.01 -0.34 1.02 0 0 Z " fill="#397662" transform="translate(293,360)"/>
<path d="M0 0 C2 2 2 2 2 5 C1.34 5 0.68 5 0 5 C-0.33 6.65 -0.66 8.3 -1 10 C-1.66 10 -2.32 10 -3 10 C-2.69201674 8.51988629 -2.378482 7.04092675 -2.0625 5.5625 C-1.88847656 4.73878906 -1.71445313 3.91507813 -1.53515625 3.06640625 C-1 1 -1 1 0 0 Z " fill="#1B6939" transform="translate(250,210)"/>
<path d="M0 0 C0 1.98 0 3.96 0 6 C-0.99 5.01 -1.98 4.02 -3 3 C-4.32 4.32 -5.64 5.64 -7 7 C-7.66 6.67 -8.32 6.34 -9 6 C-8.07213211 4.99105628 -7.13231567 3.99309093 -6.1875 3 C-5.66542969 2.443125 -5.14335937 1.88625 -4.60546875 1.3125 C-3 0 -3 0 0 0 Z " fill="#8BC27E" transform="translate(186,192)"/>
<path d="M0 0 C0.86625 0.3403125 0.86625 0.3403125 1.75 0.6875 C1.09 0.6875 0.43 0.6875 -0.25 0.6875 C-0.25 1.3475 -0.25 2.0075 -0.25 2.6875 C-0.91 2.6875 -1.57 2.6875 -2.25 2.6875 C-2.25 3.3475 -2.25 4.0075 -2.25 4.6875 C-4.25 6.3125 -4.25 6.3125 -6.25 7.6875 C-6.5 5.375 -6.5 5.375 -6.25 2.6875 C-4.11319077 0.39806154 -3.15626895 -0.43837069 0 0 Z " fill="#257B58" transform="translate(179.25,137.3125)"/>
<path d="M0 0 C0.66 0.33 1.32 0.66 2 1 C0.8141763 4.37503669 -0.27573689 6.64722731 -3 9 C-3.66 8.67 -4.32 8.34 -5 8 C-5 7.34 -5 6.68 -5 6 C-4.34 6 -3.68 6 -3 6 C-2.67 4.68 -2.34 3.36 -2 2 C-1.34 2 -0.68 2 0 2 C0 1.34 0 0.68 0 0 Z " fill="#4C9B80" transform="translate(359,280)"/>
<path d="M0 0 C0.99 0.33 1.98 0.66 3 1 C3.33 1.99 3.66 2.98 4 4 C3 5 3 5 0.93359375 5.09765625 C0.10988281 5.08605469 -0.71382813 5.07445312 -1.5625 5.0625 C-2.38878906 5.05347656 -3.21507812 5.04445313 -4.06640625 5.03515625 C-4.70449219 5.02355469 -5.34257812 5.01195312 -6 5 C-6 4.67 -6 4.34 -6 4 C-4.35 3.67 -2.7 3.34 -1 3 C-0.67 2.01 -0.34 1.02 0 0 Z " fill="#1C6439" transform="translate(272,261)"/>
<path d="M0 0 C2.5 2.3125 2.5 2.3125 5 5 C5 5.99 5 6.98 5 8 C4.01 7.67 3.02 7.34 2 7 C2 6.34 2 5.68 2 5 C1.34 5 0.68 5 0 5 C0 3.35 0 1.7 0 0 Z " fill="#7EB26A" transform="translate(266,175)"/>
<path d="M0 0 C1.32 1.32 2.64 2.64 4 4 C0.25 7 0.25 7 -2 7 C-2 5.35 -2 3.7 -2 2 C-1.34 2 -0.68 2 0 2 C0 1.34 0 0.68 0 0 Z " fill="#238860" transform="translate(338,123)"/>
<path d="M0 0 C2.97 0 5.94 0 9 0 C8.34 1.32 7.68 2.64 7 4 C4.97954558 3.39816251 2.97888961 2.72693904 1 2 C0.67 1.34 0.34 0.68 0 0 Z " fill="#057E50" transform="translate(231,91)"/>
<path d="M0 0 C2.7839183 1.39195915 2.97898997 3.15575779 4 6 C2.35 6.33 0.7 6.66 -1 7 C-1.04254356 5.00045254 -1.04080783 2.99958364 -1 1 C-0.67 0.67 -0.34 0.34 0 0 Z " fill="#085941" transform="translate(244,385)"/>
<path d="M0 0 C0.99 0.33 1.98 0.66 3 1 C3 1.66 3 2.32 3 3 C3.99 2.34 4.98 1.68 6 1 C6.99 1.33 7.98 1.66 9 2 C7.75 3.5625 7.75 3.5625 6 5 C3.9375 4.9375 3.9375 4.9375 2 4 C0.75 1.9375 0.75 1.9375 0 0 Z " fill="#5BA858" transform="translate(274,276)"/>
<path d="M0 0 C0.33 0 0.66 0 1 0 C1.36923077 5.53846154 1.36923077 5.53846154 -0.5 7.875 C-1.2425 8.431875 -1.2425 8.431875 -2 9 C-2.66 8.67 -3.32 8.34 -4 8 C-2.68 5.36 -1.36 2.72 0 0 Z " fill="#57AA53" transform="translate(221,238)"/>
<path d="M0 0 C2.31 0.33 4.62 0.66 7 1 C6.67 1.99 6.34 2.98 6 4 C4.35 3.67 2.7 3.34 1 3 C0.67 2.01 0.34 1.02 0 0 Z " fill="#376D5B" transform="translate(250,399)"/>
<path d="M0 0 C2.64 0 5.28 0 8 0 C5.06171403 2.50298434 2.82097239 3.46930939 -1 4 C-0.67 2.68 -0.34 1.36 0 0 Z " fill="#49967B" transform="translate(176,367)"/>
<path d="M0 0 C-1.375 2 -1.375 2 -3 4 C-3.66 4 -4.32 4 -5 4 C-5.33 4.66 -5.66 5.32 -6 6 C-6 4.02 -6 2.04 -6 0 C-3.50907189 -1.24546405 -2.58919267 -0.7767578 0 0 Z " fill="#4B8B77" transform="translate(319,336)"/>
<path d="M0 0 C0.33 0.66 0.66 1.32 1 2 C0.34 2 -0.32 2 -1 2 C-1.268125 2.61875 -1.53625 3.2375 -1.8125 3.875 C-3 6 -3 6 -6 8 C-6.33 7.01 -6.66 6.02 -7 5 C-4.63707344 2.47411298 -3.33537489 1.11179163 0 0 Z " fill="#539880" transform="translate(330,321)"/>
<path d="M0 0 C1.32 0.33 2.64 0.66 4 1 C0.535 3.97 0.535 3.97 -3 7 C-3 3 -3 3 -1.75 1.1875 C-1.1725 0.795625 -0.595 0.40375 0 0 Z " fill="#DDF5D1" transform="translate(163,208)"/>
<path d="M0 0 C0.66 0.33 1.32 0.66 2 1 C1.01 4.3 0.02 7.6 -1 11 C-1.33 11 -1.66 11 -2 11 C-2.25 3.375 -2.25 3.375 0 0 Z " fill="#237D59" transform="translate(149,181)"/>
<path d="M0 0 C0.66 0.33 1.32 0.66 2 1 C2.59355614 3.64860427 2.74209269 6.29197322 3 9 C1.35 7.35 -0.3 5.7 -2 4 C-1.34 2.68 -0.68 1.36 0 0 Z " fill="#F0F8E2" transform="translate(269,172)"/>
<path d="M0 0 C2.475 0.495 2.475 0.495 5 1 C5.33 2.32 5.66 3.64 6 5 C5.01 4.67 4.02 4.34 3 4 C3 5.65 3 7.3 3 9 C2.67 9 2.34 9 2 9 C2 6.36 2 3.72 2 1 C1.34 0.67 0.68 0.34 0 0 Z " fill="#70AC69" transform="translate(248,159)"/>
<path d="M0 0 C3.48331435 3.01887244 4.79157144 5.56909529 6 10 C4.125 9.5 4.125 9.5 2 8 C1.01505446 5.34822355 0.54087618 2.79452693 0 0 Z " fill="#D2EEDD" transform="translate(336,156)"/>
<path d="M0 0 C1.65 0.33 3.3 0.66 5 1 C3.68 2.32 2.36 3.64 1 5 C0.01 4.67 -0.98 4.34 -2 4 C-2 3.34 -2 2.68 -2 2 C-1.34 2 -0.68 2 0 2 C0 1.34 0 0.68 0 0 Z " fill="#0F7D52" transform="translate(183,130)"/>
<path d="M0 0 C3.53600465 1.91135386 5.78972846 3.62642766 8 7 C7.01 7.495 7.01 7.495 6 8 C5.34 7.34 4.68 6.68 4 6 C3.34 6 2.68 6 2 6 C2 4.68 2 3.36 2 2 C1.34 2 0.68 2 0 2 C0 1.34 0 0.68 0 0 Z " fill="#569E83" transform="translate(330,116)"/>
<path d="M0 0 C1.46015291 0.28241641 2.91809793 0.57626614 4.375 0.875 C5.18710937 1.03742188 5.99921875 1.19984375 6.8359375 1.3671875 C9 2 9 2 11 4 C4.25 4.125 4.25 4.125 2 3 C2 2.34 2 1.68 2 1 C1.34 0.67 0.68 0.34 0 0 Z " fill="#61A98E" transform="translate(286,93)"/>
<path d="M0 0 C0 0.66 0 1.32 0 2 C-0.66 2 -1.32 2 -2 2 C-2 2.66 -2 3.32 -2 4 C-4 3 -4 3 -6 0 C-3.50907189 -1.24546405 -2.58919267 -0.7767578 0 0 Z " fill="#085840" transform="translate(215,352)"/>
<path d="M0 0 C0.33 0.99 0.66 1.98 1 3 C-0.98 4.32 -2.96 5.64 -5 7 C-4.67 5.68 -4.34 4.36 -4 3 C-3.34 3 -2.68 3 -2 3 C-2 2.34 -2 1.68 -2 1 C-1.34 0.67 -0.68 0.34 0 0 Z " fill="#05583B" transform="translate(238,267)"/>
<path d="M0 0 C-0.375 1.9375 -0.375 1.9375 -1 4 C-1.99 4.495 -1.99 4.495 -3 5 C-3.99 4.34 -4.98 3.68 -6 3 C-3.375 0 -3.375 0 0 0 Z " fill="#429477" transform="translate(162,125)"/>
<path d="M0 0 C2.86724686 0.57344937 3.8614515 0.8614515 6 3 C4.35 3.66 2.7 4.32 1 5 C0.34 4.01 -0.32 3.02 -1 2 C-0.67 1.34 -0.34 0.68 0 0 Z " fill="#E9F6EA" transform="translate(297,123)"/>
<path d="M0 0 C2.875 -0.1875 2.875 -0.1875 6 0 C6.66 0.99 7.32 1.98 8 3 C7.01 3.33 6.02 3.66 5 4 C2.3125 2.625 2.3125 2.625 0 1 C0 0.67 0 0.34 0 0 Z " fill="#2B7F5D" transform="translate(300,123)"/>
<path d="M0 0 C2.125 0.375 2.125 0.375 4 1 C4 1.66 4 2.32 4 3 C3.34 3 2.68 3 2 3 C1.67 3.66 1.34 4.32 1 5 C0.01 4.01 -0.98 3.02 -2 2 C-1.34 1.34 -0.68 0.68 0 0 Z " fill="#127C55" transform="translate(200,98)"/>
<path d="M0 0 C0.99 0.33 1.98 0.66 3 1 C3 1.99 3 2.98 3 4 C3.99 4.33 4.98 4.66 6 5 C5.01 6.485 5.01 6.485 4 8 C0 3.375 0 3.375 0 0 Z " fill="#457C6C" transform="translate(224,369)"/>
<path d="M0 0 C1.32 0 2.64 0 4 0 C4.66 2.31 5.32 4.62 6 7 C1.125 2.25 1.125 2.25 0 0 Z " fill="#58A184" transform="translate(152,299)"/>
<path d="M0 0 C0.99 0.33 1.98 0.66 3 1 C3 1.66 3 2.32 3 3 C3.99 3.33 4.98 3.66 6 4 C5.67 5.32 5.34 6.64 5 8 C5 7.34 5 6.68 5 6 C4.34 6 3.68 6 3 6 C2.01 4.02 1.02 2.04 0 0 Z " fill="#559B7E" transform="translate(146,291)"/>
<path d="M0 0 C0.99 0 1.98 0 3 0 C1.25 5.75 1.25 5.75 -1 8 C-1 4.88742431 -0.82638376 2.89234315 0 0 Z " fill="#519F84" transform="translate(365,267)"/>
<path d="M0 0 C0.33 0.99 0.66 1.98 1 3 C-1.97 5.475 -1.97 5.475 -5 8 C-5.66 7.67 -6.32 7.34 -7 7 C-4.66666667 4.66666667 -2.33333333 2.33333333 0 0 Z " fill="#19693B" transform="translate(233,255)"/>
<path d="M0 0 C3.16717283 1.58358642 4.73268318 2.45263699 6.3125 5.6875 C6.539375 6.450625 6.76625 7.21375 7 8 C4.36 6.02 1.72 4.04 -1 2 C-0.67 1.34 -0.34 0.68 0 0 Z " fill="#E7F8D8" transform="translate(339,217)"/>
<path d="M0 0 C0.66 0.33 1.32 0.66 2 1 C0.625 2.5 0.625 2.5 -1 4 C-1.66 4 -2.32 4 -3 4 C-3.33 4.66 -3.66 5.32 -4 6 C-4.66 5.34 -5.32 4.68 -6 4 C-4.02 2.68 -2.04 1.36 0 0 Z " fill="#388D5B" transform="translate(232,177)"/>
<path d="M0 0 C0.66 0.66 1.32 1.32 2 2 C1.625 4.625 1.625 4.625 1 7 C0.01 6.01 -0.98 5.02 -2 4 C-1.34 2.68 -0.68 1.36 0 0 Z " fill="#168058" transform="translate(333,145)"/>
<path d="M0 0 C3.45925163 1.2491742 6.14693203 2.67527795 9 5 C6.625 5.125 6.625 5.125 4 5 C3.34 4.34 2.68 3.68 2 3 C1.34 2.67 0.68 2.34 0 2 C0 1.34 0 0.68 0 0 Z " fill="#60AC94" transform="translate(312,104)"/>
</svg>
